# Blender v2.82 (sub 7) OBJ File: 'hair0107.blend'
# www.blender.org
mtllib hair0202_single.mtl
o BezierCurve.007_BezierCurve.006
v -0.135289 0.796112 0.082041
v -0.135254 0.796314 0.082516
v -0.135453 0.796388 0.082988
v -0.135834 0.796314 0.083330
v -0.136295 0.796112 0.083450
v -0.136712 0.795835 0.083317
v -0.136974 0.795559 0.082966
v -0.137009 0.795357 0.082491
v -0.136810 0.795283 0.082019
v -0.136428 0.795357 0.081677
v -0.135968 0.795559 0.081556
v -0.135551 0.795835 0.081690
v -0.064852 0.662570 0.129420
v -0.064804 0.662749 0.129903
v -0.064993 0.662803 0.130382
v -0.065369 0.662718 0.130728
v -0.065830 0.662517 0.130849
v -0.066254 0.662254 0.130711
v -0.066527 0.661999 0.130352
v -0.066575 0.661821 0.129869
v -0.066386 0.661767 0.129390
v -0.066011 0.661852 0.129044
v -0.065549 0.662053 0.128924
v -0.065125 0.662316 0.129061
v -0.009752 0.554180 0.159722
v -0.009688 0.554326 0.160214
v -0.009861 0.554350 0.160701
v -0.010227 0.554245 0.161052
v -0.010686 0.554040 0.161174
v -0.011116 0.553789 0.161033
v -0.011402 0.553560 0.160667
v -0.011467 0.553414 0.160175
v -0.011294 0.553390 0.159688
v -0.010928 0.553495 0.159336
v -0.010469 0.553700 0.159215
v -0.010038 0.553951 0.159356
v 0.034221 0.467307 0.175440
v 0.034308 0.467411 0.175940
v 0.034157 0.467390 0.176435
v 0.033810 0.467250 0.176792
v 0.033358 0.467029 0.176916
v 0.032924 0.466786 0.176774
v 0.032623 0.466586 0.176403
v 0.032536 0.466482 0.175903
v 0.032687 0.466503 0.175409
v 0.033035 0.466643 0.175051
v 0.033486 0.466864 0.174927
v 0.033920 0.467107 0.175070
v 0.071276 0.398319 0.179077
v 0.071390 0.398372 0.179579
v 0.071273 0.398291 0.180076
v 0.070955 0.398097 0.180436
v 0.070523 0.397842 0.180562
v 0.070091 0.397595 0.180420
v 0.069775 0.397421 0.180048
v 0.069661 0.397368 0.179546
v 0.069778 0.397449 0.179048
v 0.070096 0.397643 0.178688
v 0.070528 0.397898 0.178562
v 0.070960 0.398145 0.178705
v 0.105620 0.343567 0.173137
v 0.105765 0.343573 0.173634
v 0.105692 0.343424 0.174124
v 0.105419 0.343160 0.174476
v 0.105021 0.342852 0.174596
v 0.104604 0.342582 0.174452
v 0.104279 0.342423 0.174081
v 0.104134 0.342417 0.173584
v 0.104207 0.342566 0.173094
v 0.104480 0.342830 0.172742
v 0.104878 0.343138 0.172622
v 0.105296 0.343408 0.172766
v 0.141476 0.299379 0.160120
v 0.141645 0.299356 0.160609
v 0.141617 0.299151 0.161083
v 0.141400 0.298820 0.161417
v 0.141052 0.298451 0.161520
v 0.140667 0.298142 0.161364
v 0.140346 0.297978 0.160992
v 0.140177 0.298001 0.160504
v 0.140205 0.298205 0.160029
v 0.140422 0.298537 0.159696
v 0.140770 0.298906 0.159593
v 0.141156 0.299214 0.159748
v 0.183084 0.262072 0.142504
v 0.183258 0.262044 0.142991
v 0.183263 0.261810 0.143452
v 0.183098 0.261432 0.143765
v 0.182806 0.261012 0.143846
v 0.182466 0.260663 0.143672
v 0.182169 0.260477 0.143291
v 0.181995 0.260504 0.142804
v 0.181990 0.260738 0.142342
v 0.182156 0.261116 0.142029
v 0.182448 0.261536 0.141949
v 0.182788 0.261886 0.142123
v 0.234693 0.227989 0.122762
v 0.234849 0.227973 0.123255
v 0.234862 0.227733 0.123713
v 0.234729 0.227334 0.124015
v 0.234484 0.226883 0.124078
v 0.234193 0.226500 0.123886
v 0.233935 0.226288 0.123491
v 0.233778 0.226304 0.122998
v 0.233765 0.226543 0.122539
v 0.233899 0.226942 0.122238
v 0.234144 0.227394 0.122174
v 0.234434 0.227777 0.122366
v 0.300529 0.193497 0.103383
v 0.300652 0.193499 0.103885
v 0.300652 0.193267 0.104348
v 0.300527 0.192863 0.104647
v 0.300311 0.192396 0.104701
v 0.300063 0.191990 0.104498
v 0.299848 0.191755 0.104090
v 0.299724 0.191753 0.103587
v 0.299725 0.191985 0.103124
v 0.299850 0.192389 0.102825
v 0.300065 0.192856 0.102771
v 0.300314 0.193262 0.102975
v 0.384803 0.154967 0.086869
v 0.384888 0.154987 0.087379
v 0.384861 0.154767 0.087847
v 0.384728 0.154367 0.088147
v 0.384525 0.153893 0.088199
v 0.384307 0.153473 0.087989
v 0.384132 0.153220 0.087573
v 0.384047 0.153200 0.087063
v 0.384074 0.153419 0.086595
v 0.384207 0.153820 0.086295
v 0.384410 0.154293 0.086243
v 0.384628 0.154713 0.086453
v 0.491719 0.108762 0.075720
v 0.491767 0.108797 0.076234
v 0.491709 0.108591 0.076706
v 0.491559 0.108199 0.077008
v 0.491358 0.107724 0.077060
v 0.491159 0.107296 0.076848
v 0.491017 0.107028 0.076429
v 0.490968 0.106992 0.075914
v 0.491027 0.107198 0.075443
v 0.491177 0.107591 0.075141
v 0.491378 0.108065 0.075089
v 0.491576 0.108493 0.075301
v 0.625481 0.051243 0.072435
v 0.625498 0.051292 0.072950
v 0.625409 0.051099 0.073422
v 0.625240 0.050715 0.073725
v 0.625034 0.050243 0.073777
v 0.624849 0.049809 0.073565
v 0.624732 0.049529 0.073145
v 0.624715 0.049480 0.072630
v 0.624804 0.049673 0.072158
v 0.624973 0.050057 0.071855
v 0.625178 0.050529 0.071803
v 0.625364 0.050963 0.072016
vt 0.000000 1.000000
vt 0.083333 1.000000
vt 0.083333 0.916667
vt 0.000000 0.916667
vt 0.000000 0.083333
vt 0.083333 0.083333
vt 0.083333 0.000000
vt 0.000000 0.000000
vt 0.000000 0.166667
vt 0.083333 0.166667
vt 0.000000 0.250000
vt 0.083333 0.250000
vt 0.000000 0.333333
vt 0.083333 0.333333
vt 0.000000 0.416667
vt 0.083333 0.416667
vt 0.000000 0.500000
vt 0.083333 0.500000
vt 0.000000 0.583333
vt 0.083333 0.583333
vt 0.000000 0.666667
vt 0.083333 0.666667
vt 0.000000 0.750000
vt 0.083333 0.750000
vt 0.000000 0.833333
vt 0.083333 0.833333
vt 0.166667 1.000000
vt 0.166667 0.916667
vt 0.166667 0.083333
vt 0.166667 0.000000
vt 0.166667 0.166667
vt 0.166667 0.250000
vt 0.166667 0.333333
vt 0.166667 0.416667
vt 0.166667 0.500000
vt 0.166667 0.583333
vt 0.166667 0.666667
vt 0.166667 0.750000
vt 0.166667 0.833333
vt 0.250000 1.000000
vt 0.250000 0.916667
vt 0.250000 0.083333
vt 0.250000 0.000000
vt 0.250000 0.166667
vt 0.250000 0.250000
vt 0.250000 0.333333
vt 0.250000 0.416667
vt 0.250000 0.500000
vt 0.250000 0.583333
vt 0.250000 0.666667
vt 0.250000 0.750000
vt 0.250000 0.833333
vt 0.333333 1.000000
vt 0.333333 0.916667
vt 0.333333 0.083333
vt 0.333333 0.000000
vt 0.333333 0.166667
vt 0.333333 0.250000
vt 0.333333 0.333333
vt 0.333333 0.416667
vt 0.333333 0.500000
vt 0.333333 0.583333
vt 0.333333 0.666667
vt 0.333333 0.750000
vt 0.333333 0.833333
vt 0.416667 1.000000
vt 0.416667 0.916667
vt 0.416667 0.083333
vt 0.416667 0.000000
vt 0.416667 0.166667
vt 0.416667 0.250000
vt 0.416667 0.333333
vt 0.416667 0.416667
vt 0.416667 0.500000
vt 0.416667 0.583333
vt 0.416667 0.666667
vt 0.416667 0.750000
vt 0.416667 0.833333
vt 0.500000 1.000000
vt 0.500000 0.916667
vt 0.500000 0.083333
vt 0.500000 0.000000
vt 0.500000 0.166667
vt 0.500000 0.250000
vt 0.500000 0.333333
vt 0.500000 0.416667
vt 0.500000 0.500000
vt 0.500000 0.583333
vt 0.500000 0.666667
vt 0.500000 0.750000
vt 0.500000 0.833333
vt 0.583333 1.000000
vt 0.583333 0.916667
vt 0.583333 0.083333
vt 0.583333 0.000000
vt 0.583333 0.166667
vt 0.583333 0.250000
vt 0.583333 0.333333
vt 0.583333 0.416667
vt 0.583333 0.500000
vt 0.583333 0.583333
vt 0.583333 0.666667
vt 0.583333 0.750000
vt 0.583333 0.833333
vt 0.666667 1.000000
vt 0.666667 0.916667
vt 0.666667 0.083333
vt 0.666667 0.000000
vt 0.666667 0.166667
vt 0.666667 0.250000
vt 0.666667 0.333333
vt 0.666667 0.416667
vt 0.666667 0.500000
vt 0.666667 0.583333
vt 0.666667 0.666667
vt 0.666667 0.750000
vt 0.666667 0.833333
vt 0.750000 1.000000
vt 0.750000 0.916667
vt 0.750000 0.083333
vt 0.750000 0.000000
vt 0.750000 0.166667
vt 0.750000 0.250000
vt 0.750000 0.333333
vt 0.750000 0.416667
vt 0.750000 0.500000
vt 0.750000 0.583333
vt 0.750000 0.666667
vt 0.750000 0.750000
vt 0.750000 0.833333
vt 0.833333 1.000000
vt 0.833333 0.916667
vt 0.833333 0.083333
vt 0.833333 0.000000
vt 0.833333 0.166667
vt 0.833333 0.250000
vt 0.833333 0.333333
vt 0.833333 0.416667
vt 0.833333 0.500000
vt 0.833333 0.583333
vt 0.833333 0.666667
vt 0.833333 0.750000
vt 0.833333 0.833333
vt 0.916667 1.000000
vt 0.916667 0.916667
vt 0.916667 0.083333
vt 0.916667 0.000000
vt 0.916667 0.166667
vt 0.916667 0.250000
vt 0.916667 0.333333
vt 0.916667 0.416667
vt 0.916667 0.500000
vt 0.916667 0.583333
vt 0.916667 0.666667
vt 0.916667 0.750000
vt 0.916667 0.833333
vt 1.000000 1.000000
vt 1.000000 0.916667
vt 1.000000 0.083333
vt 1.000000 0.000000
vt 1.000000 0.166667
vt 1.000000 0.250000
vt 1.000000 0.333333
vt 1.000000 0.416667
vt 1.000000 0.500000
vt 1.000000 0.583333
vt 1.000000 0.666667
vt 1.000000 0.750000
vt 1.000000 0.833333
vn 0.8421 0.2807 -0.4605
vn 0.8388 0.2880 -0.4620
vn 0.5670 0.0329 -0.8231
vn 0.5763 0.0141 -0.8171
vn 0.8816 0.4717 0.0189
vn 0.8849 0.4652 0.0221
vn 0.6856 0.5363 0.4923
vn 0.6947 0.5178 0.4993
vn 0.3074 0.4581 0.8341
vn 0.3200 0.4326 0.8429
vn -0.1523 0.2581 0.9540
vn -0.1394 0.2326 0.9625
vn -0.5719 -0.0107 0.8202
vn -0.5620 -0.0292 0.8266
vn -0.8396 -0.2771 0.4672
vn -0.8356 -0.2837 0.4703
vn -0.8827 -0.4697 -0.0117
vn -0.8863 -0.4629 -0.0126
vn -0.6884 -0.5363 -0.4883
vn -0.6988 -0.5180 -0.4933
vn -0.3083 -0.4584 -0.8336
vn -0.3222 -0.4334 -0.8416
vn 0.1550 -0.2567 -0.9540
vn 0.1417 -0.2315 -0.9625
vn 0.8271 0.3121 -0.4674
vn 0.5417 0.0826 -0.8365
vn 0.8890 0.4570 0.0263
vn 0.7131 0.4793 0.5116
vn 0.3481 0.3741 0.8596
vn -0.1085 0.1700 0.9794
vn -0.5364 -0.0790 0.8403
vn -0.8227 -0.3075 0.4780
vn -0.8906 -0.4547 -0.0128
vn -0.7194 -0.4802 -0.5017
vn -0.3534 -0.3761 -0.8565
vn 0.1090 -0.1698 -0.9794
vn 0.8017 0.3627 -0.4752
vn 0.5005 0.1617 -0.8505
vn 0.8849 0.4649 0.0274
vn 0.7305 0.4419 0.5206
vn 0.3825 0.3016 0.8733
vn -0.0655 0.0820 0.9944
vn -0.4959 -0.1589 0.8537
vn -0.7960 -0.3583 0.4877
vn -0.8861 -0.4633 -0.0087
vn -0.7396 -0.4448 -0.5051
vn -0.3925 -0.3061 -0.8673
vn 0.0623 -0.0837 -0.9945
vn 0.7534 0.4505 -0.4790
vn 0.4357 0.2757 -0.8568
vn 0.8645 0.5018 0.0279
vn 0.7419 0.4176 0.5246
vn 0.4223 0.2224 0.8787
vn -0.0073 -0.0304 0.9995
vn -0.4340 -0.2748 0.8579
vn -0.7471 -0.4472 0.4917
vn -0.8646 -0.5025 -0.0050
vn -0.7528 -0.4245 -0.5030
vn -0.4378 -0.2318 -0.8686
vn -0.0019 0.0251 -0.9997
vn 0.6731 0.5728 -0.4677
vn 0.3439 0.4115 -0.8440
vn 0.8165 0.5762 0.0361
vn 0.7370 0.4230 0.5271
vn 0.4605 0.1575 0.8735
vn 0.0639 -0.1481 0.9869
vn -0.3479 -0.4138 0.8412
vn -0.6685 -0.5712 0.4762
vn -0.8148 -0.5795 -0.0139
vn -0.7470 -0.4350 -0.5027
vn -0.4792 -0.1734 -0.8604
vn -0.0796 0.1371 -0.9873
vn 0.5648 0.7006 -0.4360
vn 0.2394 0.5324 -0.8119
vn 0.7347 0.6757 0.0599
vn 0.7028 0.4660 0.5375
vn 0.4810 0.1316 0.8668
vn 0.1325 -0.2356 0.9627
vn -0.2491 -0.5389 0.8047
vn -0.5646 -0.7005 0.4365
vn -0.7327 -0.6790 -0.0458
vn -0.7089 -0.4793 -0.5175
vn -0.4970 -0.1515 -0.8544
vn -0.1504 0.2192 -0.9640
vn 0.4552 0.7967 -0.3975
vn 0.1548 0.6065 -0.7798
vn 0.6318 0.7693 0.0946
vn 0.6352 0.5312 0.5606
vn 0.4657 0.1493 0.8722
vn 0.1715 -0.2707 0.9472
vn -0.1666 -0.6163 0.7696
vn -0.4595 -0.7981 0.3897
vn -0.6313 -0.7700 -0.0919
vn -0.6375 -0.5398 -0.5497
vn -0.4754 -0.1663 -0.8639
vn -0.1860 0.2530 -0.9494
vn 0.3758 0.8492 -0.3709
vn 0.1158 0.6334 -0.7651
vn 0.5349 0.8356 0.1253
vn 0.5484 0.5942 0.5883
vn 0.4125 0.1910 0.8907
vn 0.1651 -0.2629 0.9506
vn -0.1257 -0.6441 0.7545
vn -0.3818 -0.8520 0.3582
vn -0.5360 -0.8339 -0.1316
vn -0.5488 -0.5959 -0.5862
vn -0.4169 -0.2007 -0.8865
vn -0.1742 0.2487 -0.9528
vn 0.3380 0.8694 -0.3603
vn 0.1223 0.6313 -0.7658
vn 0.4634 0.8744 0.1437
vn 0.4636 0.6425 0.6101
vn 0.3378 0.2356 0.9112
vn 0.1203 -0.2350 0.9645
vn -0.1292 -0.6408 0.7567
vn -0.3431 -0.8730 0.3464
vn -0.4648 -0.8718 -0.1547
vn -0.4630 -0.6395 -0.6136
vn -0.3390 -0.2386 -0.9100
vn -0.1252 0.2258 -0.9661
vn 0.3338 0.8717 -0.3587
vn 0.1584 0.6160 -0.7716
vn 0.4204 0.8946 0.1516
vn 0.3938 0.6763 0.6225
vn 0.2605 0.2743 0.9257
vn 0.0564 -0.2023 0.9777
vn -0.1628 -0.6235 0.7647
vn -0.3374 -0.8754 0.3460
vn -0.4211 -0.8921 -0.1639
vn -0.3925 -0.6712 -0.6288
vn -0.2600 -0.2730 -0.9262
vn -0.0587 0.1974 -0.9785
vn 0.3498 0.8651 -0.3593
vn 0.2070 0.5961 -0.7757
vn 0.3995 0.9037 0.1542
vn 0.3418 0.6993 0.6277
vn 0.1917 0.3056 0.9326
vn -0.0104 -0.1712 0.9852
vn -0.2097 -0.6015 0.7708
vn -0.3520 -0.8686 0.3487
vn -0.3993 -0.9016 -0.1658
vn -0.3399 -0.6939 -0.6348
vn -0.1903 -0.3022 -0.9340
vn 0.0096 0.1692 -0.9855
vn 0.3612 0.8605 -0.3592
vn 0.2327 0.5855 -0.7765
vn 0.3934 0.9061 0.1551
vn 0.3201 0.7084 0.6290
vn 0.1603 0.3193 0.9340
vn -0.0430 -0.1563 0.9868
vn -0.2346 -0.5897 0.7728
vn -0.3627 -0.8635 0.3504
vn -0.3930 -0.9045 -0.1655
vn -0.3180 -0.7033 -0.6357
vn -0.1586 -0.3154 -0.9356
vn 0.0427 0.1556 -0.9869
usemtl None
s 1
f 1/1/1 13/2/2 24/3/3 12/4/4
f 2/5/5 14/6/6 13/7/2 1/8/1
f 3/9/7 15/10/8 14/6/6 2/5/5
f 4/11/9 16/12/10 15/10/8 3/9/7
f 5/13/11 17/14/12 16/12/10 4/11/9
f 6/15/13 18/16/14 17/14/12 5/13/11
f 7/17/15 19/18/16 18/16/14 6/15/13
f 8/19/17 20/20/18 19/18/16 7/17/15
f 9/21/19 21/22/20 20/20/18 8/19/17
f 10/23/21 22/24/22 21/22/20 9/21/19
f 11/25/23 23/26/24 22/24/22 10/23/21
f 12/4/4 24/3/3 23/26/24 11/25/23
f 13/2/2 25/27/25 36/28/26 24/3/3
f 14/6/6 26/29/27 25/30/25 13/7/2
f 15/10/8 27/31/28 26/29/27 14/6/6
f 16/12/10 28/32/29 27/31/28 15/10/8
f 17/14/12 29/33/30 28/32/29 16/12/10
f 18/16/14 30/34/31 29/33/30 17/14/12
f 19/18/16 31/35/32 30/34/31 18/16/14
f 20/20/18 32/36/33 31/35/32 19/18/16
f 21/22/20 33/37/34 32/36/33 20/20/18
f 22/24/22 34/38/35 33/37/34 21/22/20
f 23/26/24 35/39/36 34/38/35 22/24/22
f 24/3/3 36/28/26 35/39/36 23/26/24
f 25/27/25 37/40/37 48/41/38 36/28/26
f 26/29/27 38/42/39 37/43/37 25/30/25
f 27/31/28 39/44/40 38/42/39 26/29/27
f 28/32/29 40/45/41 39/44/40 27/31/28
f 29/33/30 41/46/42 40/45/41 28/32/29
f 30/34/31 42/47/43 41/46/42 29/33/30
f 31/35/32 43/48/44 42/47/43 30/34/31
f 32/36/33 44/49/45 43/48/44 31/35/32
f 33/37/34 45/50/46 44/49/45 32/36/33
f 34/38/35 46/51/47 45/50/46 33/37/34
f 35/39/36 47/52/48 46/51/47 34/38/35
f 36/28/26 48/41/38 47/52/48 35/39/36
f 37/40/37 49/53/49 60/54/50 48/41/38
f 38/42/39 50/55/51 49/56/49 37/43/37
f 39/44/40 51/57/52 50/55/51 38/42/39
f 40/45/41 52/58/53 51/57/52 39/44/40
f 41/46/42 53/59/54 52/58/53 40/45/41
f 42/47/43 54/60/55 53/59/54 41/46/42
f 43/48/44 55/61/56 54/60/55 42/47/43
f 44/49/45 56/62/57 55/61/56 43/48/44
f 45/50/46 57/63/58 56/62/57 44/49/45
f 46/51/47 58/64/59 57/63/58 45/50/46
f 47/52/48 59/65/60 58/64/59 46/51/47
f 48/41/38 60/54/50 59/65/60 47/52/48
f 49/53/49 61/66/61 72/67/62 60/54/50
f 50/55/51 62/68/63 61/69/61 49/56/49
f 51/57/52 63/70/64 62/68/63 50/55/51
f 52/58/53 64/71/65 63/70/64 51/57/52
f 53/59/54 65/72/66 64/71/65 52/58/53
f 54/60/55 66/73/67 65/72/66 53/59/54
f 55/61/56 67/74/68 66/73/67 54/60/55
f 56/62/57 68/75/69 67/74/68 55/61/56
f 57/63/58 69/76/70 68/75/69 56/62/57
f 58/64/59 70/77/71 69/76/70 57/63/58
f 59/65/60 71/78/72 70/77/71 58/64/59
f 60/54/50 72/67/62 71/78/72 59/65/60
f 61/66/61 73/79/73 84/80/74 72/67/62
f 62/68/63 74/81/75 73/82/73 61/69/61
f 63/70/64 75/83/76 74/81/75 62/68/63
f 64/71/65 76/84/77 75/83/76 63/70/64
f 65/72/66 77/85/78 76/84/77 64/71/65
f 66/73/67 78/86/79 77/85/78 65/72/66
f 67/74/68 79/87/80 78/86/79 66/73/67
f 68/75/69 80/88/81 79/87/80 67/74/68
f 69/76/70 81/89/82 80/88/81 68/75/69
f 70/77/71 82/90/83 81/89/82 69/76/70
f 71/78/72 83/91/84 82/90/83 70/77/71
f 72/67/62 84/80/74 83/91/84 71/78/72
f 73/79/73 85/92/85 96/93/86 84/80/74
f 74/81/75 86/94/87 85/95/85 73/82/73
f 75/83/76 87/96/88 86/94/87 74/81/75
f 76/84/77 88/97/89 87/96/88 75/83/76
f 77/85/78 89/98/90 88/97/89 76/84/77
f 78/86/79 90/99/91 89/98/90 77/85/78
f 79/87/80 91/100/92 90/99/91 78/86/79
f 80/88/81 92/101/93 91/100/92 79/87/80
f 81/89/82 93/102/94 92/101/93 80/88/81
f 82/90/83 94/103/95 93/102/94 81/89/82
f 83/91/84 95/104/96 94/103/95 82/90/83
f 84/80/74 96/93/86 95/104/96 83/91/84
f 85/92/85 97/105/97 108/106/98 96/93/86
f 86/94/87 98/107/99 97/108/97 85/95/85
f 87/96/88 99/109/100 98/107/99 86/94/87
f 88/97/89 100/110/101 99/109/100 87/96/88
f 89/98/90 101/111/102 100/110/101 88/97/89
f 90/99/91 102/112/103 101/111/102 89/98/90
f 91/100/92 103/113/104 102/112/103 90/99/91
f 92/101/93 104/114/105 103/113/104 91/100/92
f 93/102/94 105/115/106 104/114/105 92/101/93
f 94/103/95 106/116/107 105/115/106 93/102/94
f 95/104/96 107/117/108 106/116/107 94/103/95
f 96/93/86 108/106/98 107/117/108 95/104/96
f 97/105/97 109/118/109 120/119/110 108/106/98
f 98/107/99 110/120/111 109/121/109 97/108/97
f 99/109/100 111/122/112 110/120/111 98/107/99
f 100/110/101 112/123/113 111/122/112 99/109/100
f 101/111/102 113/124/114 112/123/113 100/110/101
f 102/112/103 114/125/115 113/124/114 101/111/102
f 103/113/104 115/126/116 114/125/115 102/112/103
f 104/114/105 116/127/117 115/126/116 103/113/104
f 105/115/106 117/128/118 116/127/117 104/114/105
f 106/116/107 118/129/119 117/128/118 105/115/106
f 107/117/108 119/130/120 118/129/119 106/116/107
f 108/106/98 120/119/110 119/130/120 107/117/108
f 109/118/109 121/131/121 132/132/122 120/119/110
f 110/120/111 122/133/123 121/134/121 109/121/109
f 111/122/112 123/135/124 122/133/123 110/120/111
f 112/123/113 124/136/125 123/135/124 111/122/112
f 113/124/114 125/137/126 124/136/125 112/123/113
f 114/125/115 126/138/127 125/137/126 113/124/114
f 115/126/116 127/139/128 126/138/127 114/125/115
f 116/127/117 128/140/129 127/139/128 115/126/116
f 117/128/118 129/141/130 128/140/129 116/127/117
f 118/129/119 130/142/131 129/141/130 117/128/118
f 119/130/120 131/143/132 130/142/131 118/129/119
f 120/119/110 132/132/122 131/143/132 119/130/120
f 121/131/121 133/144/133 144/145/134 132/132/122
f 122/133/123 134/146/135 133/147/133 121/134/121
f 123/135/124 135/148/136 134/146/135 122/133/123
f 124/136/125 136/149/137 135/148/136 123/135/124
f 125/137/126 137/150/138 136/149/137 124/136/125
f 126/138/127 138/151/139 137/150/138 125/137/126
f 127/139/128 139/152/140 138/151/139 126/138/127
f 128/140/129 140/153/141 139/152/140 127/139/128
f 129/141/130 141/154/142 140/153/141 128/140/129
f 130/142/131 142/155/143 141/154/142 129/141/130
f 131/143/132 143/156/144 142/155/143 130/142/131
f 132/132/122 144/145/134 143/156/144 131/143/132
f 133/144/133 145/157/145 156/158/146 144/145/134
f 134/146/135 146/159/147 145/160/145 133/147/133
f 135/148/136 147/161/148 146/159/147 134/146/135
f 136/149/137 148/162/149 147/161/148 135/148/136
f 137/150/138 149/163/150 148/162/149 136/149/137
f 138/151/139 150/164/151 149/163/150 137/150/138
f 139/152/140 151/165/152 150/164/151 138/151/139
f 140/153/141 152/166/153 151/165/152 139/152/140
f 141/154/142 153/167/154 152/166/153 140/153/141
f 142/155/143 154/168/155 153/167/154 141/154/142
f 143/156/144 155/169/156 154/168/155 142/155/143
f 144/145/134 156/158/146 155/169/156 143/156/144
